<?xml version="1.0" encoding="UTF-8"?>
<svg width="23px" height="32px" viewBox="0 0 23 32" version="1.1" xmlns="http://www.w3.org/2000/svg" xmlns:xlink="http://www.w3.org/1999/xlink">
    <!-- Generator: Sketch 43.2 (39069) - http://www.bohemiancoding.com/sketch -->
    <title>Page 1</title>
    <desc>Created with Sketch.</desc>
    <defs>
        <path d="M12.939388,22.6719244 L11.1536603,22.6719244 C10.8773389,21.621646 10.499222,20.3457485 10.11075,19.5310026 C10.11075,19.5310026 9.21516667,17.2337218 9.0275,15.9452388 C9.0275,15.9452388 8.50808333,15.6466562 7.538775,15.9452388 C7.538775,15.9452388 6.79588333,16.136315 6.47941667,16.1490814 C6.47941667,16.1490814 6.020325,16.4545512 6.035625,16.992252 C6.035625,16.992252 5.83076667,18.104189 7.40498333,18.8336378 C7.40498333,18.8336378 7.607075,18.8652178 7.74211667,19.2068871 L8.2018,20.328147 C8.2018,20.328147 8.28361667,20.5871706 7.924625,20.8708031 C7.924625,20.8708031 6.48294167,22.1194751 4.749225,22.0729449 C4.749225,22.0729449 2.909325,22.3416273 0.703325,20.8708031 C0.703325,20.8708031 0.040725,20.3992861 0.533183333,19.4127454 C0.533183333,19.4127454 0.929833333,18.6425617 2.640825,17.9313386 C2.640825,17.9313386 4.08065833,17.2684094 4.0793,16.752294 C4.0793,16.752294 4.11391667,16.4728609 3.07159167,16.5433281 C3.07159167,16.5433281 2.41100833,16.536189 1.63360833,16.752294 C1.63360833,16.752294 0.691983333,16.9175853 0.111525,16.752294 C0.111525,16.752294 -0.32635,16.367958 0.533183333,16.3222677 C0.533183333,16.3222677 2.75225833,16.104063 3.26180833,15.9452388 C3.26180833,15.9452388 4.08841667,15.7375328 4.56725833,15.5909711 L5.29121667,14.2931654 C5.29121667,14.2931654 5.54854167,13.4779633 6.47941667,12.368378 C6.47941667,12.368378 7.88756667,10.6805249 7.74211667,9.49896063 L7.74211667,8.97377428 L7.40498333,8.53467717 C7.40498333,8.53467717 7.59568333,6.51321785 6.86814167,4.53156955 L7.20505833,4.33142257 C7.20505833,4.33142257 7.29311667,4.2568399 7.20505833,4.06853543 C7.20505833,4.06853543 6.86049167,3.68949081 7.0927,3.66756955 C7.0927,3.66756955 8.17521667,3.75609449 8.4645,3.93969554 C8.4645,3.93969554 11.3986518,1.4743356 12.9851625,0.03367979 L15.9897028,0.03367979 L15.9556667,0.0871811024 C15.9556667,0.0871811024 10.6895833,6.54714961 10.3839167,8.76094488 C10.3839167,8.76094488 10.6576667,9.65946457 10.738,10.3239895 C10.738,10.3239895 10.7395,14.336168 10.9703333,14.5326194 C10.9703333,14.5326194 11.5894167,14.8038215 12.2425833,14.2931654 C12.2425833,14.2931654 13.4870833,14.288042 13.7223333,13.9344462 L13.7223333,13.2487559 C13.7223333,13.2487559 13.9235,12.9659633 13.5903333,12.8469501 L12.8781667,13.047685 C12.8781667,13.047685 12.74225,13.911685 12.01725,13.9344462 L11.3505833,13.759748 C11.3505833,13.759748 10.9234167,13.2292703 11.125,13.047685 C11.125,13.047685 11.666,12.3166404 12.01725,12.368378 C12.3685833,12.4201155 12.093,12.3011864 12.093,12.3011864 C12.093,12.3011864 12.607,12.3333543 12.6514167,12.6994646 L13.97425,12.368378 C13.97425,12.368378 14.0696667,11.0950971 14.7680833,10.9392126 C14.7680833,10.9392126 15.7115,10.7342782 15.5175833,11.4167769 L15.4008333,11.9696798 C15.4008333,11.9696798 15.9926702,11.9532095 16.5680536,12.0280681 L16.5680534,12.5144579 C16.5680534,12.4391963 16.5146822,12.3720337 16.303,12.4016378 C16.303,12.4016378 15.7264167,12.519643 15.2774167,12.5448399 C15.2774167,12.5448399 14.954,13.2340577 15.1513333,13.3771759 C15.1513333,13.3771759 16.3406667,12.9113701 16.5128333,12.6759475 C16.5128333,12.6759475 16.5680534,12.5910129 16.5680534,12.5144583 L16.5680534,13.3513975 C16.0145559,13.6295551 15.2404465,14.0052731 15.0043333,14.0537953 C14.62375,14.1319895 15.0043333,15.7975853 15.0043333,15.7975853 L15.1184167,16.5433281 C15.1184167,16.5433281 15.7183333,17.3907822 15.7183333,17.3975853 C15.7183333,17.4043885 15.7465833,17.5938688 15.4008333,17.7070866 L14.7680833,17.9313386 C14.7680833,17.9313386 14.1986667,18.2200945 13.97425,17.7070866 C13.97425,17.7070866 13.962,17.2628661 13.7223333,16.992252 L13.7223333,14.9953176 C13.7223333,14.9953176 13.8541667,14.7419213 13.5903333,14.775769 L12.8781667,14.9953176 L12.4471667,15.1560735 L12.2425833,15.295748 L11.7325833,15.295748 L11.3505833,15.4544882 C11.3505833,15.4544882 10.8655833,15.416189 10.9703333,15.9452388 C10.9703333,15.9452388 11.2615,17.511811 11.3505833,17.511811 C11.4396667,17.511811 12.125,17.7788976 12.093,18.3960525 L12.01725,18.8336378 L12.01725,19.2068871 C12.01725,19.2068871 12.4271667,20.3012703 12.6514167,21.3510551 C12.6514167,21.3510551 12.7696265,22.0188147 12.939388,22.6719246 L12.939388,22.6719244 Z M7.26808333,15.2903727 C7.59155,15.1397795 8.37583333,15.1354121 8.37583333,15.1354121 C8.67558333,15.0626772 8.55225,14.7551916 8.55225,14.7551916 L8.07490833,12.8576168 C7.88719167,12.4548031 7.62764167,12.8576168 7.62764167,12.8576168 L6.92115,14.0663937 C6.80239167,14.2359685 6.4639,14.992294 6.4639,14.992294 C6.50904167,15.672105 7.31991667,15.263832 7.31991667,15.263832 L7.26808333,15.2903727 L7.23745,15.3023832 C7.00118333,15.4269396 7.17591667,15.3377428 7.26808333,15.2903727 Z M9.151,4.35544357 C9.151,4.35544357 10.26775,5.59958005 10.2389167,6.3512021 L14.6975,0.627989501 C14.6975,0.627989501 15.1181667,0.0702992126 14.5163333,0.03367979 L9.34458333,4.03703937 C9.34458333,4.03703937 8.96625,4.21786877 9.151,4.35544357 Z" id="path-1"></path>
    </defs>
    <g id="Symbols" stroke="none" stroke-width="1" fill="none" fill-rule="evenodd">
        <g id="header" transform="translate(-31.000000, -10.000000)">
            <g id="Page-1">
                <g transform="translate(31.000000, 10.000000)">
                    <path d="M11.7325833,16.3415853 L11.3505833,16.5003255 C11.3505833,16.5003255 10.8655833,16.4620262 10.9703333,16.9910761 C10.9703333,16.9910761 11.2615,18.5576483 11.3505833,18.5576483 C11.4396667,18.5576483 12.125,18.8247349 12.093,19.4418898 L12.01725,19.8794751 L12.01725,20.2527244 C12.01725,20.2527244 12.4271667,21.3471076 12.6514167,22.3968924 C12.6514167,22.3968924 13.014,24.4451024 13.3810833,24.8756577 L13.03675,25.5113743 L13.03675,26.2043381 C13.03675,26.2043381 13.18275,26.7994877 12.8781667,27.2386268 C12.8781667,27.2386268 12.7985833,27.4085207 13.03675,27.5740388 C13.03675,27.5740388 13.6155833,28.1671055 13.2624167,28.4319244 C13.2624167,28.4319244 12.7775833,28.6255454 13.2624167,29.2507633 L13.7223333,29.9568546 C13.7223333,29.9568546 14.9706667,31.2813858 15.0043333,31.464399 C15.0043333,31.464399 14.2486667,32.2747129 12.8781667,31.8103685 C12.8781667,31.8103685 12.1323333,31.4772493 11.7325833,30.433285 C11.7325833,30.433285 11.283,29.3930415 11.125,28.8825953 C11.125,28.8825953 10.5419167,28.7471034 10.5544167,28.2753176 C10.5544167,28.2753176 10.211,27.8383118 9.73316667,27.4328525 C9.73316667,27.4328525 9.27866667,27.2788661 9.28483333,26.665684 C9.28483333,26.665684 8.95166667,25.9671937 9.73316667,26.098864 C9.73316667,26.098864 10.0385833,25.5670929 10.5544167,25.7924871 C10.5544167,25.7924871 10.94675,25.852632 11.125,26.098864 C11.125,26.098864 11.5326667,26.0046446 11.5871667,25.5113743 C11.5871667,25.5113743 10.8686667,22.1664252 10.11075,20.5768399 C10.11075,20.5768399 9.21516667,18.2795591 9.0275,16.9910761 C9.0275,16.9910761 8.50808333,16.6924934 7.538775,16.9910761 C7.538775,16.9910761 6.79588333,17.1821522 6.47941667,17.1949186 C6.47941667,17.1949186 6.020325,17.5003885 6.035625,18.0380892 C6.035625,18.0380892 5.83076667,19.1500262 7.40498333,19.8794751 C7.40498333,19.8794751 7.607075,19.9110551 7.74211667,20.2527244 L8.2018,21.3739843 C8.2018,21.3739843 8.28361667,21.6330079 7.924625,21.9166404 C7.924625,21.9166404 6.48294167,23.1653123 4.749225,23.1187822 C4.749225,23.1187822 2.909325,23.3874646 0.703325,21.9166404 C0.703325,21.9166404 0.040725,21.4451234 0.533183333,20.4585827 C0.533183333,20.4585827 0.929833333,19.688399 2.640825,18.9771759 C2.640825,18.9771759 4.08065833,18.3142467 4.0793,17.7981312 C4.0793,17.7981312 4.11391667,17.5186982 3.07159167,17.5891654 C3.07159167,17.5891654 2.41100833,17.5820262 1.63360833,17.7981312 C1.63360833,17.7981312 0.691983333,17.9634226 0.111525,17.7981312 C0.111525,17.7981312 -0.32635,17.4137953 0.533183333,17.368105 C0.533183333,17.368105 2.75225833,17.1499003 3.26180833,16.9910761 C3.26180833,16.9910761 4.08841667,16.7833701 4.56725833,16.6368084 L5.29121667,15.3390026 C5.29121667,15.3390026 5.54854167,14.5238005 6.47941667,13.4142152 C6.47941667,13.4142152 7.88756667,11.7263622 7.74211667,10.5447979 L7.74211667,10.0196115 L7.40498333,9.58051444 C7.40498333,9.58051444 7.59568333,7.55905512 6.86814167,5.57740682 L7.20505833,5.37725984 C7.20505833,5.37725984 7.29311667,5.30267717 7.20505833,5.1143727 C7.20505833,5.1143727 6.86049167,4.73532808 7.0927,4.71340682 C7.0927,4.71340682 8.17521667,4.80193176 8.4645,4.98553281 C8.4645,4.98553281 13.86825,0.445144357 13.97425,0.0870971129 C13.97425,0.0870971129 14.5804167,0.256587927 15.0043333,0.0870971129 C15.0043333,0.0870971129 16.1155833,-0.379296588 16.1380833,0.846278215 L15.9556667,1.13301837 C15.9556667,1.13301837 10.6895833,7.59298688 10.3839167,9.80678215 C10.3839167,9.80678215 10.6576667,10.7053018 10.738,11.3698268 C10.738,11.3698268 10.7395,15.3820052 10.9703333,15.5784567 C10.9703333,15.5784567 11.5894167,15.8496588 12.2425833,15.3390026 C12.2425833,15.3390026 13.4870833,15.3338793 13.7223333,14.9802835 L13.7223333,14.2945932 C13.7223333,14.2945932 13.9235,14.0118005 13.5903333,13.8927874 L12.8781667,14.0935223 C12.8781667,14.0935223 12.74225,14.9575223 12.01725,14.9802835 L11.3505833,14.8055853 C11.3505833,14.8055853 10.9234167,14.2751076 11.125,14.0935223 C11.125,14.0935223 11.666,13.3624777 12.01725,13.4142152 C12.3685833,13.4659528 12.093,13.3470236 12.093,13.3470236 C12.093,13.3470236 12.607,13.3791916 12.6514167,13.7453018 L13.97425,13.4142152 C13.97425,13.4142152 14.0696667,12.1409344 14.7680833,11.9850499 C14.7680833,11.9850499 15.7115,11.7801155 15.5175833,12.4626142 L15.4008333,13.0155171 C15.4008333,13.0155171 17.14225,12.9670551 17.5549167,13.4142152 C17.5549167,13.4142152 17.7165833,13.6372913 17.1625,14.0935223 C17.1625,14.0935223 15.3848333,15.0214383 15.0043333,15.0996325 C14.62375,15.1778268 15.0043333,16.8434226 15.0043333,16.8434226 L15.1184167,17.5891654 C15.1184167,17.5891654 15.7183333,18.4366194 15.7183333,18.4434226 C15.7183333,18.4502257 15.7465833,18.639706 15.4008333,18.7529239 L14.7680833,18.9771759 C14.7680833,18.9771759 14.1986667,19.2659318 13.97425,18.7529239 C13.97425,18.7529239 13.962,18.3087034 13.7223333,18.0380892 L13.7223333,16.0411549 C13.7223333,16.0411549 13.8541667,15.7877585 13.5903333,15.8216063 L12.8781667,16.0411549 L12.4471667,16.2019108 L12.2425833,16.3415853 L11.7325833,16.3415853 Z M7.26808333,16.33621 C7.59155,16.1856168 8.37583333,16.1812493 8.37583333,16.1812493 C8.67558333,16.1085144 8.55225,15.8010289 8.55225,15.8010289 L8.07490833,13.9034541 C7.88719167,13.5006404 7.62764167,13.9034541 7.62764167,13.9034541 L6.92115,15.112231 C6.80239167,15.2818058 6.4639,16.0381312 6.4639,16.0381312 C6.50904167,16.7179423 7.31991667,16.3096693 7.31991667,16.3096693 L7.26808333,16.33621 L7.23745,16.3482205 C7.00118333,16.4727769 7.17591667,16.3835801 7.26808333,16.33621 Z M15.2774167,13.5906772 C15.2774167,13.5906772 14.954,14.279895 15.1513333,14.4230131 C15.1513333,14.4230131 16.3406667,13.9572073 16.5128333,13.7217848 C16.5128333,13.7217848 16.73,13.3877585 16.303,13.4474751 C16.303,13.4474751 15.7264167,13.5654803 15.2774167,13.5906772 Z M9.151,5.40128084 C9.151,5.40128084 10.26775,6.64541732 10.2389167,7.39703937 L14.6975,1.67382677 C14.6975,1.67382677 15.1181667,1.11613648 14.5163333,1.07951706 L9.34458333,5.08287664 C9.34458333,5.08287664 8.96625,5.26370604 9.151,5.40128084 Z" id="Fill-1" fill="#FFFFFF"></path>
                    <g id="Group-8" transform="translate(0.000000, 1.045837)">
                        <mask id="mask-2" fill="white">
                            <use xlink:href="#path-1"></use>
                        </mask>
                        <g id="Clip-3"></g>
                        <path d="M15.2774167,12.5448399 C15.2774167,12.5448399 14.954,13.2340577 15.1513333,13.3771759 C15.1513333,13.3771759 16.3406667,12.9113701 16.5128333,12.6759475 C16.5128333,12.6759475 16.73,12.3419213 16.303,12.4016378 C16.303,12.4016378 15.7264167,12.519643 15.2774167,12.5448399 Z" id="Fill-2" fill="#FFFFFF" mask="url(#mask-2)"></path>
                        <path d="M8.07490833,12.8576168 L8.55225,14.7551916 C8.55225,14.7551916 8.67558333,15.0626772 8.37583333,15.1354121 C8.37583333,15.1354121 7.54544167,15.1400315 7.23745,15.3023832 C6.92945,15.4647349 7.31991667,15.263832 7.31991667,15.263832 C7.31991667,15.263832 6.50904167,15.672105 6.4639,14.992294 C6.4639,14.992294 6.80239167,14.2359685 6.92115,14.0663937 L7.62764167,12.8576168 C7.62764167,12.8576168 7.88719167,12.4548031 8.07490833,12.8576168 Z" id="Fill-4" fill="#FFFFFF" mask="url(#mask-2)"></path>
                        <path d="M9.151,4.35544357 C9.151,4.35544357 10.26775,5.59958005 10.2389167,6.3512021 L14.6975,0.627989501 C14.6975,0.627989501 15.1181667,0.0702992126 14.5163333,0.03367979 L9.34458333,4.03703937 C9.34458333,4.03703937 8.96625,4.21786877 9.151,4.35544357 Z" id="Fill-5" fill="#FFFFFF" mask="url(#mask-2)"></path>
                        <path d="M6.06283333,16.999811 C6.06283333,16.999811 5.45931667,16.0066352 4.9227,16.7575853 C4.9227,16.7575853 4.67514167,17.3928819 4.05038333,16.7575853 L0.7636,18.3476745 L-0.801425,20.2179528 L1.13575,22.6719244 L6.90585,22.6719244 L8.853,21.0301312 L7.74065,18.1456798 L6.06283333,16.999811" id="Fill-6" fill="#D02D10" mask="url(#mask-2)"></path>
                        <path d="M5.66976667,15.4815328 C5.66976667,15.4815328 4.92668333,15.5274751 5.188975,16.0702992 C5.188975,16.0702992 5.48926667,16.4595066 5.98804167,16.0702992 C5.98804167,16.0702992 6.42033333,15.5205039 5.66976667,15.4815328 Z" id="Fill-7" fill="#D02D10" mask="url(#mask-2)"></path>
                    </g>
                    <path d="M0.983175,9.88489239 L0.7775,9.40514436 L0.573516667,9.88489239 L0.983175,9.88489239 Z M0.684008333,9.15334383 L0.877783333,9.15334383 L1.40133333,10.3611129 L1.18035833,10.3611129 L1.05966667,10.071601 L0.497025,10.071601 L0.374641667,10.3611129 L0.160458333,10.3611129 L0.684008333,9.15334383 Z" id="Fill-9" fill="#FFFFFF"></path>
                    <path d="M3.451325,9.78544882 C3.53065,9.78544882 3.59326667,9.76554331 3.63915833,9.7255643 C3.68505,9.6855853 3.708,9.63418373 3.708,9.57135958 L3.708,9.56791601 C3.708,9.49711286 3.684775,9.44369554 3.63830833,9.40774803 C3.59185,9.37171654 3.52951667,9.35374278 3.451325,9.35374278 L3.20825,9.35374278 L3.20825,9.78544882 L3.451325,9.78544882 Z M2.999175,9.16191076 L3.468325,9.16191076 C3.53745,9.16191076 3.60006667,9.17131759 3.65615833,9.19013123 C3.71225,9.20902887 3.75985,9.23615748 3.79894167,9.27151706 C3.83804167,9.30696063 3.86806667,9.34920735 3.88903333,9.39834121 C3.91,9.44739108 3.92048333,9.50223622 3.92048333,9.56279265 L3.92048333,9.56623622 C3.92048333,9.6335958 3.90801667,9.69272441 3.88308333,9.74353806 C3.85815,9.79435171 3.82415833,9.83685039 3.78109167,9.87111811 C3.73803333,9.90538583 3.6876,9.93142257 3.62980833,9.94906037 C3.57201667,9.96678215 3.51025833,9.97568504 3.444525,9.97568504 L3.20825,9.97568504 L3.20825,10.3611129 L2.999175,10.3611129 L2.999175,9.16191076 Z" id="Fill-10" fill="#FFFFFF"></path>
                    <path d="M6.01636667,10.3800105 C5.93930833,10.3800105 5.86961667,10.3688399 5.80729167,10.3465827 C5.74496667,10.3243255 5.6917,10.2908976 5.64750833,10.2463832 C5.60330833,10.2017848 5.56931667,10.1466877 5.54551667,10.0810079 C5.52171667,10.0153281 5.50981667,9.93914961 5.50981667,9.85230446 L5.50981667,9.16191076 L5.7189,9.16191076 L5.7189,9.84373753 C5.7189,9.95569554 5.74553333,10.0407769 5.79879167,10.0989816 C5.85205,10.1572703 5.92570833,10.1864147 6.01976667,10.1864147 C6.11269167,10.1864147 6.18578333,10.1583622 6.23905,10.1024252 C6.29230833,10.0464882 6.31894167,9.96308661 6.31894167,9.85230446 L6.31894167,9.16191076 L6.52801667,9.16191076 L6.52801667,9.84205774 C6.52801667,9.93108661 6.51583333,10.0093648 6.491475,10.0767244 C6.46710833,10.144084 6.432825,10.200357 6.38863333,10.2454593 C6.34443333,10.2905617 6.29089167,10.3243255 6.228,10.3465827 C6.1651,10.3688399 6.09455833,10.3800105 6.01636667,10.3800105 Z" id="Fill-11" fill="#FFFFFF"></path>
                    <polygon id="Fill-12" fill="#000000" points="8.20915 9.16191076 8.43183333 9.16191076 8.79391667 9.72892388 9.15591667 9.16191076 9.37866667 9.16191076 9.37866667 10.3611129 9.16958333 10.3611129 9.16958333 9.50106037 8.79391667 10.0664777 8.78708333 10.0664777 8.41483333 9.50450394 8.41483333 10.3611129 8.20915 10.3611129"></polygon>
                    <path d="M11.7991667,9.88489239 L11.5935,9.40514436 L11.3895,9.88489239 L11.7991667,9.88489239 Z M11.5,9.15334383 L11.6938333,9.15334383 L12.2173333,10.3611129 L11.9963333,10.3611129 L11.8756667,10.071601 L11.313,10.071601 L11.1906667,10.3611129 L10.9765,10.3611129 L11.5,9.15334383 Z" id="Fill-13" fill="#FFFFFF"></path>
                    <polygon id="Fill-14" fill="#FFFFFF" points="13.8151667 9.16191076 14.009 9.16191076 14.6464167 9.99105512 14.6464167 9.16191076 14.8520833 9.16191076 14.8520833 10.3611129 14.677 10.3611129 14.0208333 9.50794751 14.0208333 10.3611129 13.8151667 10.3611129"></polygon>
                    <path d="M17.1230833,10.1880945 C17.16275,10.1880945 17.1995,10.1829711 17.2335,10.1726404 C17.2675,10.1623937 17.2986667,10.1481155 17.327,10.1298058 L17.1230833,9.95510761 L17.2573333,9.80090289 L17.463,9.98937533 C17.5038333,9.92655118 17.52425,9.85171654 17.52425,9.76495538 L17.52425,9.76151181 C17.52425,9.7032231 17.5143333,9.64812598 17.4945,9.59622047 C17.4746667,9.54423097 17.4468333,9.49912861 17.4111667,9.4608294 C17.3755,9.42261417 17.3326667,9.39204199 17.2828333,9.36919685 C17.233,9.34635171 17.1785833,9.33492913 17.1196667,9.33492913 C17.06075,9.33492913 17.0065833,9.34601575 16.9573333,9.36835696 C16.908,9.39061417 16.8658333,9.42085039 16.8306667,9.45914961 C16.7955833,9.49736483 16.7680833,9.54221522 16.74825,9.5936168 C16.7284167,9.64501837 16.7185,9.69986352 16.7185,9.75806824 L16.7185,9.76151181 C16.7185,9.81971654 16.7284167,9.87489764 16.74825,9.92680315 C16.7680833,9.97879265 16.7958333,10.023895 16.8315,10.0621942 C16.86725,10.1004094 16.91,10.1309816 16.9598333,10.1538268 C17.00975,10.1766719 17.0640833,10.1880945 17.1230833,10.1880945 Z M17.48175,10.2686404 C17.43075,10.3051759 17.3751667,10.3331444 17.3151667,10.3525459 C17.2550833,10.3719475 17.1899167,10.3816903 17.1196667,10.3816903 C17.0278333,10.3816903 16.944,10.3653963 16.8680833,10.3328924 C16.7921667,10.3003045 16.727,10.256042 16.6725833,10.200105 C16.6181667,10.144084 16.5756667,10.0787402 16.5450833,10.0039055 C16.5145,9.92915486 16.49925,9.84944882 16.49925,9.76495538 L16.49925,9.76151181 C16.49925,9.67701837 16.5145,9.59731234 16.5450833,9.52247769 C16.5756667,9.44772703 16.61875,9.38204724 16.6743333,9.32552231 C16.7298333,9.26899738 16.7955833,9.22414698 16.8715,9.19097113 C16.9474167,9.15787927 17.03125,9.14133333 17.1230833,9.14133333 C17.2148333,9.14133333 17.2986667,9.1576273 17.3745833,9.19013123 C17.4505833,9.22271916 17.51575,9.26698163 17.5700833,9.32291864 C17.6245,9.37885564 17.667,9.44428346 17.6975833,9.51911811 C17.7281667,9.59386877 17.7435,9.6735748 17.7435,9.75806824 L17.7435,9.76151181 C17.7435,9.83004724 17.73325,9.89539108 17.7129167,9.9576273 C17.6925,10.0199475 17.6625,10.0773123 17.6228333,10.1298058 L17.75875,10.2463832 L17.6245,10.3971444 L17.48175,10.2686404 Z" id="Fill-15" fill="#FFFFFF"></path>
                    <path d="M19.8785,10.3800105 C19.8014167,10.3800105 19.73175,10.3688399 19.6694167,10.3465827 C19.6070833,10.3243255 19.5538333,10.2908976 19.5095833,10.2463832 C19.4654167,10.2017848 19.4314167,10.1466877 19.4075833,10.0810079 C19.3838333,10.0153281 19.3719167,9.93914961 19.3719167,9.85230446 L19.3719167,9.16191076 L19.581,9.16191076 L19.581,9.84373753 C19.581,9.95569554 19.6076667,10.0407769 19.6609167,10.0989816 C19.7141667,10.1572703 19.7878333,10.1864147 19.8818333,10.1864147 C19.9748333,10.1864147 20.0479167,10.1583622 20.1011667,10.1024252 C20.1544167,10.0464882 20.181,9.96308661 20.181,9.85230446 L20.181,9.16191076 L20.3900833,9.16191076 L20.3900833,9.84205774 C20.3900833,9.93108661 20.3779167,10.0093648 20.3535833,10.0767244 C20.32925,10.144084 20.2949167,10.200357 20.25075,10.2454593 C20.2065,10.2905617 20.153,10.3243255 20.0900833,10.3465827 C20.0271667,10.3688399 19.9566667,10.3800105 19.8785,10.3800105 Z" id="Fill-16" fill="#FFFFFF"></path>
                    <polygon id="Fill-17" fill="#FFFFFF" points="22.07125 9.16191076 22.9535 9.16191076 22.9535 9.35029921 22.2803333 9.35029921 22.2803333 9.66215223 22.877 9.66215223 22.877 9.85062467 22.2803333 9.85062467 22.2803333 10.1726404 22.962 10.1726404 22.962 10.3611129 22.07125 10.3611129"></polygon>
                    <path d="M16.1535,15.8132913 C16.1535,15.8132913 15.772,16.5508031 16.1535,17.3630656 C16.1535,17.3630656 16.8789167,18.4370394 17.8304167,17.9483045 C17.8304167,17.9483045 18.5565,17.6948241 18.7455,16.5807874 L18.6068333,15.8132913 L18.4494167,15.2570289 L18.32,14.9221627 C18.32,14.9221627 18.2009167,14.5402625 17.8304167,14.7389816 C17.8304167,14.7389816 17.6185,14.9387087 17.8304167,15.5729974 L18.19825,16.4628661 C18.19825,16.4628661 18.2986667,17.303769 17.5360833,17.5155066 C17.5360833,17.5155066 16.6631667,17.6673596 16.4955,16.7959685 C16.4955,16.7959685 16.4356667,15.9193701 16.6483333,15.6904147 C16.6483333,15.6904147 17.09625,15.4986667 17.1010833,15.2570289 C17.1010833,15.2570289 17.0818333,14.8912546 16.6483333,15.087622 C16.6483333,15.087622 16.1803333,15.2461102 16.0179167,15.087622 C16.0179167,15.087622 15.6490833,14.9285459 15.5193333,15.2570289 C15.5193333,15.2570289 15.1206667,15.719643 15.70325,15.8132913 L16.1535,15.8132913 Z" id="Fill-18" fill="#FFFFFF"></path>
                </g>
            </g>
        </g>
    </g>
</svg>